<svg xmlns="http://www.w3.org/2000/svg" xmlns:xlink="http://www.w3.org/1999/xlink" width="304.093" height="164.692" viewBox="0 0 304.093 164.692">
  <defs>
    <clipPath id="clip-path">
      <rect id="Rectangle_61" data-name="Rectangle 61" width="304.093" height="164.692" fill="none"/>
    </clipPath>
    <clipPath id="clip-path-2">
      <rect id="Rectangle_60" data-name="Rectangle 60" width="304.093" height="164.692" fill="#ff6850"/>
    </clipPath>
    <clipPath id="clip-path-3">
      <rect id="Rectangle_56" data-name="Rectangle 56" width="238.612" height="164.692" fill="none"/>
    </clipPath>
    <clipPath id="clip-path-4">
      <rect id="Rectangle_57" data-name="Rectangle 57" width="257.931" height="78.965" fill="none"/>
    </clipPath>
    <clipPath id="clip-path-5">
      <rect id="Rectangle_58" data-name="Rectangle 58" width="152.045" height="104.945" fill="none"/>
    </clipPath>
    <clipPath id="clip-path-6">
      <rect id="Rectangle_59" data-name="Rectangle 59" width="152.048" height="104.945" fill="#ff6850"/>
    </clipPath>
    <clipPath id="clip-path-7">
      <rect id="Rectangle_63" data-name="Rectangle 63" width="277.301" height="103.81" fill="none" stroke="#e5e5e5" stroke-width="1"/>
    </clipPath>
  </defs>
  <g id="Group_81" data-name="Group 81" transform="translate(-990.297 -367.5)">
    <g id="Group_75" data-name="Group 75" transform="translate(990.297 367.5)">
      <g id="Group_74" data-name="Group 74" clip-path="url(#clip-path)">
        <g id="Group_73" data-name="Group 73">
          <g id="Group_72" data-name="Group 72" clip-path="url(#clip-path-2)">
            <g id="Group_62" data-name="Group 62" transform="translate(32.74)" opacity="0.9">
              <g id="Group_61" data-name="Group 61">
                <g id="Group_60" data-name="Group 60" clip-path="url(#clip-path-3)">
                  <path id="Path_63" data-name="Path 63" d="M149.991,0c-48.661,0-64,164.692-119.3,164.692H269.3C213.989,164.692,198.654,0,149.991,0" transform="translate(-30.685)" fill="#69d48c"/>
                </g>
              </g>
            </g>
            <g id="Group_65" data-name="Group 65" transform="translate(23.08 85.727)" opacity="0.9">
              <g id="Group_64" data-name="Group 64">
                <g id="Group_63" data-name="Group 63" clip-path="url(#clip-path-4)">
                  <path id="Path_64" data-name="Path 64" d="M150.6,80.347c-52.6,0-69.182,78.965-128.965,78.965H279.563c-59.785,0-76.364-78.965-128.966-78.965" transform="translate(-21.632 -80.347)" fill="#f9e169"/>
                </g>
              </g>
            </g>
            <g id="Group_68" data-name="Group 68" transform="translate(0 59.747)" opacity="0.9">
              <g id="Group_67" data-name="Group 67">
                <g id="Group_66" data-name="Group 66" clip-path="url(#clip-path-5)">
                  <path id="Path_65" data-name="Path 65" d="M76.024,56C45.014,56,35.24,160.943,0,160.943H152.045C116.8,160.943,107.031,56,76.024,56" transform="translate(0 -55.998)" fill="#ff6850"/>
                </g>
              </g>
            </g>
            <g id="Group_71" data-name="Group 71" transform="translate(152.045 59.747)" opacity="0.9">
              <g id="Group_70" data-name="Group 70">
                <g id="Group_69" data-name="Group 69" clip-path="url(#clip-path-6)">
                  <path id="Path_66" data-name="Path 66" d="M218.527,56c31.008,0,40.782,104.945,76.025,104.945H142.5C177.747,160.943,187.52,56,218.527,56" transform="translate(-142.504 -55.998)" fill="#ff6850"/>
                </g>
              </g>
            </g>
          </g>
        </g>
      </g>
    </g>
    <g id="Group_79" data-name="Group 79" transform="translate(1003.693 410.178)">
      <g id="Group_78" data-name="Group 78" transform="translate(0 0)" clip-path="url(#clip-path-7)">
        <path id="Path_70" data-name="Path 70" d="M.536,77.393C52.7,17.1,68.186,60.205,139.443,10.733c57.15-39.7,118.1,48.419,135.886,91.726" transform="translate(0.593 0.784)" fill="none" stroke="#e5e5e5" stroke-width="1.417"/>
      </g>
    </g>
    <g id="Ellipse_1" data-name="Ellipse 1" transform="translate(1002.784 482.198)" fill="#ff6850" stroke="#e5e5e5" stroke-width="1">
      <circle cx="3.734" cy="3.734" r="3.734" stroke="none"/>
      <circle cx="3.734" cy="3.734" r="3.234" fill="none"/>
    </g>
    <g id="Ellipse_2" data-name="Ellipse 2" transform="translate(1049.73 450.189)" fill="#ff6850" stroke="#e5e5e5" stroke-width="1">
      <circle cx="3.734" cy="3.734" r="3.734" stroke="none"/>
      <circle cx="3.734" cy="3.734" r="3.234" fill="none"/>
    </g>
    <g id="Ellipse_3" data-name="Ellipse 3" transform="translate(1127.617 425.649)" fill="#ff6850" stroke="#e5e5e5" stroke-width="1">
      <circle cx="3.734" cy="3.734" r="3.734" stroke="none"/>
      <circle cx="3.734" cy="3.734" r="3.234" fill="none"/>
    </g>
    <g id="Ellipse_4" data-name="Ellipse 4" transform="translate(1220.442 430.984)" fill="#ff6850" stroke="#e5e5e5" stroke-width="1">
      <circle cx="3.734" cy="3.734" r="3.734" stroke="none"/>
      <circle cx="3.734" cy="3.734" r="3.234" fill="none"/>
    </g>
    <g id="Ellipse_5" data-name="Ellipse 5" transform="translate(1275.924 509.939)" fill="#ff6850" stroke="#e5e5e5" stroke-width="1">
      <circle cx="3.734" cy="3.734" r="3.734" stroke="none"/>
      <circle cx="3.734" cy="3.734" r="3.234" fill="none"/>
    </g>
  </g>
</svg>
