<svg id="Group_77" data-name="Group 77" xmlns="http://www.w3.org/2000/svg" xmlns:xlink="http://www.w3.org/1999/xlink" width="192.732" height="192.732" viewBox="0 0 192.732 192.732">
  <defs>
    <clipPath id="clip-path">
      <rect id="Rectangle_62" data-name="Rectangle 62" width="192.732" height="192.732" fill="none"/>
    </clipPath>
  </defs>
  <g id="Group_76" data-name="Group 76" clip-path="url(#clip-path)">
    <path id="Path_67" data-name="Path 67" d="M105.748,38.479a57.7,57.7,0,0,1,40.93,16.956l27.21-27.21a96.365,96.365,0,0,0-136.281,0l27.21,27.21a57.7,57.7,0,0,1,40.93-16.956" transform="translate(-9.382)" fill="#ff6850"/>
    <path id="Path_68" data-name="Path 68" d="M210.144,37.607l-27.21,27.209a57.7,57.7,0,0,1,16.956,40.932h38.479a96.071,96.071,0,0,0-28.225-68.141" transform="translate(-45.638 -9.382)" fill="#69d48c"/>
    <path id="Path_69" data-name="Path 69" d="M96.366,163.633a57.884,57.884,0,0,1-40.93-98.817l-27.21-27.21a96.366,96.366,0,1,0,164.506,68.141H154.252a57.886,57.886,0,0,1-57.886,57.886" transform="translate(0 -9.382)" fill="#e9dd6c"/>
  </g>
</svg>
