<svg xmlns="http://www.w3.org/2000/svg" xmlns:xlink="http://www.w3.org/1999/xlink" width="26.5" height="38.705" viewBox="0 0 26.5 38.705">
  <defs>
    <clipPath id="clip-path">
      <rect id="Rectangle_37" data-name="Rectangle 37" width="26.5" height="38.705" fill="none"/>
    </clipPath>
    <filter id="_1" x="2" y="6.705" width="23" height="31" filterUnits="userSpaceOnUse">
      <feOffset dy="2" input="SourceAlpha"/>
      <feGaussianBlur stdDeviation="2" result="blur"/>
      <feFlood flood-opacity="0.329"/>
      <feComposite operator="in" in2="blur"/>
      <feComposite in="SourceGraphic"/>
    </filter>
  </defs>
  <g id="Group_111" data-name="Group 111" transform="translate(-1058 -832.295)">
    <g id="Group_38" data-name="Group 38" transform="translate(1058 832.295)">
      <g id="Group_37" data-name="Group 37" clip-path="url(#clip-path)">
        <path id="Path_14" data-name="Path 14" d="M0,484.31s2.991-2,4.944-2.126v5S3.418,487.006.671,489.2l1.8-3.509Z" transform="translate(0 -450.498)" fill="#be1818"/>
        <path id="Path_15" data-name="Path 15" d="M332.98,484.31s-2.991-2-4.944-2.126v5s1.526-.183,4.272,2.014l-1.8-3.509Z" transform="translate(-306.48 -450.498)" fill="#be1818"/>
        <path id="Path_16" data-name="Path 16" d="M53.681,485.53l1.416,1.658v-5Z" transform="translate(-50.153 -450.498)" fill="#9d1915"/>
        <path id="Path_17" data-name="Path 17" d="M329.453,485.53l-1.416,1.658v-5Z" transform="translate(-306.48 -450.498)" fill="#9d1915"/>
        <path id="Path_18" data-name="Path 18" d="M53.681,419.753a22.749,22.749,0,0,1,19.445,0v5.421s-9.722-5.543-19.445,0Z" transform="translate(-50.153 -390.142)" fill="#e6344d"/>
        <path id="Path_19" data-name="Path 19" d="M151.609,45.5v-.5l-.434-2.028,1.839-1.793v-.5h-7.357v.5l1.765,1.721-.348,2.03-.012.574,2.636-2.482Z" transform="translate(-136.086 -37.997)" fill="#f49b32"/>
        <path id="Path_20" data-name="Path 20" d="M149.336,7.656l1.137,2.3,2.542.369-1.839,1.793.434,2.531-2.273-1.2-2.273,1.2.434-2.531-1.839-1.793,2.542-.369Z" transform="translate(-136.086 -7.153)" fill="#f49b32"/>
        <path id="Path_21" data-name="Path 21" d="M149.336,0l1.137,2.3,2.542.369-1.839,1.793L151.609,7l-2.273-1.2L147.063,7l.434-2.531-1.839-1.793L148.2,2.3Z" transform="translate(-136.086 0)" fill="#ffe255"/>
        <path id="Path_22" data-name="Path 22" d="M44.839,108.436c-1.587,7.737-11.028,4.815-11.028,4.815.08,19.775,11.028,21.871,11.028,21.871s10.948-2.1,11.028-21.871c0,0-9.441,2.922-11.028-4.815" transform="translate(-31.589 -101.31)" fill="#f49b32"/>
        <path id="Path_23" data-name="Path 23" d="M44.839,80.251c-1.587,7.737-11.028,6.667-11.028,6.667.08,19.775,11.028,20.019,11.028,20.019s10.948-.244,11.028-20.019c0,0-9.441,1.07-11.028-6.667" transform="translate(-31.589 -74.977)" fill="#ffe255"/>
      </g>
    </g>
    <g transform="matrix(1, 0, 0, 1, 1058, 832.3)" filter="url(#_1)">
      <text id="_1-2" data-name="1" transform="translate(9 24.7)" fill="#fff" stroke="rgba(0,0,0,0)" stroke-width="1" font-size="14" font-family="Roboto-Bold, Roboto" font-weight="700" letter-spacing="0.05em"><tspan x="0" y="0">1</tspan></text>
    </g>
  </g>
</svg>
