<svg xmlns="http://www.w3.org/2000/svg" width="311" height="462" viewBox="0 0 311 462">
  <defs>
    <style>
      .cls-1 {
        fill: #2924f8;
        fill-rule: evenodd;
      }
    </style>
  </defs>
  <path class="cls-1" d="M155.5,0C69.759,0,0,68.286,0,152.217a149.958,149.958,0,0,0,18.669,72.336L149,452c2.772,3.921,5.827,10,8,10,1.717,0,4.544-6.782,6.252-9.811L292.379,224.478A149.933,149.933,0,0,0,311,152.216C311,68.286,241.242,0,155.5,0Zm0,256.865c-58.948,0-106.906-46.945-106.906-104.648S96.552,47.567,155.5,47.567,262.407,94.512,262.407,152.216,214.449,256.865,155.5,256.865ZM199.074,205.6a7.87,7.87,0,0,0,.423-2.538V75.013a8.056,8.056,0,0,0-8.107-8H120.6a8.054,8.054,0,0,0-8.105,8V203.065a7.9,7.9,0,0,0,.423,2.538m61.113-.535H139.92V163.05h34.112v42.018ZM156,127.033a28.214,28.214,0,1,1,28.573-28.21A28.392,28.392,0,0,1,156,127.033Zm7.091-35.211H174.03v14H163.087v10.809H148.905V105.825H137.962v-14h10.943V81.016h14.182V91.822ZM88,202H225a2,2,0,0,1,2,2v15a2,2,0,0,1-2,2H88a2,2,0,0,1-2-2V204A2,2,0,0,1,88,202Z"/>
</svg>
