<svg xmlns="http://www.w3.org/2000/svg" width="39" height="18.731" viewBox="0 0 39 18.731">
  <path id="Icon_ionic-ios-arrow-round-back" data-name="Icon ionic-ios-arrow-round-back" d="M16.939,11.61a1.389,1.389,0,0,1,.009,1.795l-5.271,5.941H45.762a1.278,1.278,0,0,1,0,2.536H11.677l5.28,5.941a1.4,1.4,0,0,1-.009,1.795,1.039,1.039,0,0,1-1.589-.01L8.2,21.512h0a1.45,1.45,0,0,1-.234-.4,1.341,1.341,0,0,1-.087-.488,1.358,1.358,0,0,1,.321-.888l7.155-8.1A1.023,1.023,0,0,1,16.939,11.61Z" transform="translate(-7.882 -11.252)" fill=""/>
</svg>
