<svg xmlns="http://www.w3.org/2000/svg" width="21.401" height="17.72" viewBox="0 0 21.401 17.72">
  <path id="Union_1" data-name="Union 1" d="M-704.82-1592.9l1.6-1.658a6.638,6.638,0,0,0,7.538-1.425,6.655,6.655,0,0,0-.164-9.4,6.655,6.655,0,0,0-9.4.164,6.555,6.555,0,0,0-1.83,4.735l4.77-.083a2.019,2.019,0,0,1-.022-.3,2,2,0,0,1,2-2,2,2,0,0,1,2,2,2,2,0,0,1-2,2,2,2,0,0,1-1.93-1.473l-5.162,5.345-5.581-5.389,3.683-.064a8.82,8.82,0,0,1,2.477-6.314,8.855,8.855,0,0,1,12.53-.211,8.855,8.855,0,0,1,.226,12.529,8.8,8.8,0,0,1-6.352,2.7A8.889,8.889,0,0,1-704.82-1592.9Z" transform="translate(713 1609.469)" fill="#e8edf2"/>
</svg>
