<svg xmlns="http://www.w3.org/2000/svg" width="19" height="19.05" viewBox="0 0 19 19.05">
  <path id="Union_5" data-name="Union 5" d="M14.756,19A.721.721,0,0,1,14,18.323V6.679A.721.721,0,0,1,14.756,6h3.538a.722.722,0,0,1,.756.677V18.323a.722.722,0,0,1-.756.677Zm0-3.5h3.538V7.358H14.756Zm-7,3.5A.722.722,0,0,1,7,18.323V3.68A.723.723,0,0,1,7.756,3h3.538a.723.723,0,0,1,.756.679V18.323a.722.722,0,0,1-.756.677Zm0-6.5h3.538V4.357H7.756Zm-7,6.5A.723.723,0,0,1,0,18.323V.679A.723.723,0,0,1,.757,0H4.294a.721.721,0,0,1,.754.679V18.323A.721.721,0,0,1,4.294,19Zm0-9.5H4.294V1.357H.757Z" transform="translate(19) rotate(90)"/>
</svg>
