<svg xmlns="http://www.w3.org/2000/svg" width="24" height="19" viewBox="0 0 24 19">
  <path id="Icon_awesome-chart-bar" data-name="Icon awesome-chart-bar" d="M15.888,20.5h1.944a.727.727,0,0,0,.648-.7V12.45a.727.727,0,0,0-.648-.7H15.888a.727.727,0,0,0-.648.7V19.8a.727.727,0,0,0,.648.7Zm4.86,0h1.944a.727.727,0,0,0,.648-.7V7.2a.727.727,0,0,0-.648-.7H20.748a.727.727,0,0,0-.648.7V19.8a.727.727,0,0,0,.648.7Zm-14.58,0H8.112a.727.727,0,0,0,.648-.7V15.95a.727.727,0,0,0-.648-.7H6.168a.727.727,0,0,0-.648.7V19.8a.727.727,0,0,0,.648.7Zm4.86,0h1.944a.727.727,0,0,0,.648-.7V8.95a.727.727,0,0,0-.648-.7H11.028a.727.727,0,0,0-.648.7V19.8A.727.727,0,0,0,11.028,20.5ZM23.19,22H3.24V7.375A.844.844,0,0,0,2.43,6.5H.81A.844.844,0,0,0,0,7.375V23.75A1.689,1.689,0,0,0,1.62,25.5H23.19a.844.844,0,0,0,.81-.875v-1.75A.844.844,0,0,0,23.19,22Z" transform="translate(0 -6.5)"/>
</svg>
