<svg xmlns="http://www.w3.org/2000/svg" width="19.05" height="19" viewBox="0 0 19.05 19">
  <path id="Union_4" data-name="Union 4" d="M-7877.245-862a.721.721,0,0,1-.754-.677v-11.644a.721.721,0,0,1,.754-.677h3.538a.722.722,0,0,1,.756.677v11.644a.722.722,0,0,1-.756.677Zm0-3.5h3.538v-8.142h-3.538Zm-7,3.5a.722.722,0,0,1-.756-.677v-14.643a.723.723,0,0,1,.756-.679h3.538a.723.723,0,0,1,.756.679v14.643a.722.722,0,0,1-.756.677Zm0-6.5h3.538v-8.144h-3.538Zm-7,6.5a.723.723,0,0,1-.757-.677v-17.643a.723.723,0,0,1,.757-.679h3.538a.721.721,0,0,1,.754.679v17.643a.721.721,0,0,1-.754.677Zm0-9.5h3.538v-8.144h-3.538Z" transform="translate(7892.001 881.001)" fill="#bfbfc4"/>
</svg>
