<svg xmlns="http://www.w3.org/2000/svg" width="20.172" height="19" viewBox="0 0 20.172 19">
  <path id="Icon_metro-chart-bars2" data-name="Icon metro-chart-bars2" d="M8.792,11.213H5.255a.723.723,0,0,0-.756.679V24.106a.723.723,0,0,0,.756.679H8.792a.723.723,0,0,0,.756-.679V11.891A.723.723,0,0,0,8.792,11.213Zm0,12.214H5.255V18H8.792ZM16.353,8.5H12.816a.723.723,0,0,0-.756.679V24.106a.723.723,0,0,0,.756.679h3.537a.723.723,0,0,0,.756-.679V9.177a.723.723,0,0,0-.756-.679Zm0,14.929H12.816V16.641h3.537ZM23.915,5.784H20.378a.723.723,0,0,0-.756.679V24.106a.723.723,0,0,0,.756.679h3.537a.723.723,0,0,0,.756-.679V6.463a.723.723,0,0,0-.756-.679Zm0,17.643H20.378V15.284h3.537Z" transform="translate(-4.499 -5.784)"/>
</svg>
