<svg xmlns="http://www.w3.org/2000/svg" width="25" height="19" viewBox="0 0 25 19">
  <path id="Icon_simple-wechat" data-name="Icon simple-wechat" d="M24.521,13.274A6.612,6.612,0,0,0,21.3,10.269a9.6,9.6,0,0,0-7.947.029,6.177,6.177,0,0,0-3.52,3.97,4.739,4.739,0,0,0,.708,3.778,7.685,7.685,0,0,0,5.178,3.1,10.378,10.378,0,0,0,4.519-.272c.877.311,1.658.815,2.508,1.189-.22-.674-.454-1.341-.7-2.005a6.726,6.726,0,0,0,2.337-2.365A4.741,4.741,0,0,0,24.521,13.274ZM14.184,4.245A11.407,11.407,0,0,0,5.553,3.63,8.7,8.7,0,0,0,1.026,6.892a5.684,5.684,0,0,0-.832,4.69,7.269,7.269,0,0,0,3.4,4.209c-.312.811-.609,1.621-.891,2.437,1.016-.486,2.031-.995,3.048-1.489a12.282,12.282,0,0,0,3.812.494A5.406,5.406,0,0,1,9.3,14.419a5.866,5.866,0,0,1,2.077-3.39A9.552,9.552,0,0,1,18.139,9a7.343,7.343,0,0,0-3.983-4.75h.028Zm1.805,9.528a1.083,1.083,0,0,1-1.682.336.913.913,0,0,1,.37-1.548c.765-.3,1.648.512,1.312,1.212Zm4.995.088a1.1,1.1,0,0,1-1.642.258,1.38,1.38,0,0,1-.358-.7,1.105,1.105,0,0,1,.969-.911c.734-.093,1.392.737,1.016,1.351h.016ZM13.531,7.7a1.308,1.308,0,0,1-2.078.867,1.132,1.132,0,0,1,.356-2.009,1.266,1.266,0,0,1,1.72,1.13l0,.011Zm-6.311.233a1.328,1.328,0,0,1-2.027.647,1.143,1.143,0,0,1,.359-2.033C6.461,6.231,7.494,7.076,7.219,7.937Z" transform="translate(0.001 -3.06)"/>
</svg>
