<svg xmlns="http://www.w3.org/2000/svg" width="29.348" height="23.22" viewBox="0 0 29.348 23.22">
  <g id="Group_336" data-name="Group 336" transform="translate(-195.012 -130.003)">
    <path id="Icon_simple-email" data-name="Icon simple-email" d="M11.284,4.9a5.472,5.472,0,0,1-.176,1.187,3.434,3.434,0,0,1-.461,1.042,2.435,2.435,0,0,1-.782.741,2.208,2.208,0,0,1-1.142.282,1.656,1.656,0,0,1-.826-.2,1.415,1.415,0,0,1-.558-.572,1.769,1.769,0,0,1-1.5.752,1.522,1.522,0,0,1-1.307-.7,2.3,2.3,0,0,1-.325-.814,3.511,3.511,0,0,1-.042-1.062,4.934,4.934,0,0,1,.324-1.3,3.536,3.536,0,0,1,.6-1,2.53,2.53,0,0,1,.822-.635,2.294,2.294,0,0,1,1-.222,3.109,3.109,0,0,1,.6.051,2.448,2.448,0,0,1,.464.139,2.51,2.51,0,0,1,.385.2c.117.076.235.154.353.233L8.419,6.36a1.111,1.111,0,0,0,.009.391.547.547,0,0,0,.119.241.43.43,0,0,0,.194.126.719.719,0,0,0,.68-.134,1.45,1.45,0,0,0,.365-.464,2.989,2.989,0,0,0,.245-.7,4.785,4.785,0,0,0,.107-.869A5.55,5.55,0,0,0,10,3.332a3.226,3.226,0,0,0-.6-1.256,2.789,2.789,0,0,0-1.077-.809A3.908,3.908,0,0,0,6.755.98,3.463,3.463,0,0,0,5.2,1.318a3.56,3.56,0,0,0-1.179.937,4.5,4.5,0,0,0-.772,1.41,6.355,6.355,0,0,0-.325,1.757,5.842,5.842,0,0,0,.166,1.793A3.238,3.238,0,0,0,3.749,8.5a2.733,2.733,0,0,0,1.11.772,4.257,4.257,0,0,0,1.531.256A5.246,5.246,0,0,0,7.4,9.42c.166-.033.323-.073.473-.117a3.558,3.558,0,0,0,.407-.146l.21.945a2.333,2.333,0,0,1-.455.225,4.384,4.384,0,0,1-.538.156,5.253,5.253,0,0,1-1.124.126,5.9,5.9,0,0,1-2.05-.33A3.773,3.773,0,0,1,2.823,9.3a4.126,4.126,0,0,1-.9-1.622,6.92,6.92,0,0,1-.251-2.252,6.868,6.868,0,0,1,.431-2.161A5.349,5.349,0,0,1,3.145,1.544,4.731,4.731,0,0,1,4.729.411,4.959,4.959,0,0,1,6.78,0,5.177,5.177,0,0,1,8.768.356a3.866,3.866,0,0,1,1.435,1A4.108,4.108,0,0,1,11.054,2.9,5.914,5.914,0,0,1,11.284,4.9Zm-5.694.65a2.255,2.255,0,0,0,.117,1.118.6.6,0,0,0,.577.378.637.637,0,0,0,.2-.036.7.7,0,0,0,.227-.137,1.214,1.214,0,0,0,.231-.278,2.137,2.137,0,0,0,.212-.471l.227-2.6a1.355,1.355,0,0,0-.353-.046,1.22,1.22,0,0,0-.587.135,1.162,1.162,0,0,0-.416.4,2.32,2.32,0,0,0-.276.65,5.512,5.512,0,0,0-.156.888Z" transform="translate(203.459 131.003)" fill="#5f5f65"/>
    <g id="Icon_feather-mail" data-name="Icon feather-mail" transform="translate(196.423 131.003)">
      <path id="Path_642" data-name="Path 642" d="M5.652,6h21.22a2.66,2.66,0,0,1,2.652,2.652V24.567a2.66,2.66,0,0,1-2.652,2.652H5.652A2.66,2.66,0,0,1,3,24.567V8.652A2.66,2.66,0,0,1,5.652,6Z" transform="translate(-3 -6)" fill="none" stroke="#5f5f65" stroke-linecap="round" stroke-linejoin="round" stroke-width="2"/>
      <path id="Path_643" data-name="Path 643" d="M29.524,9,16.442,20.862,3,9" transform="translate(-3 -6.348)" fill="none" stroke="#5f5f65" stroke-linecap="round" stroke-linejoin="round" stroke-width="2"/>
    </g>
  </g>
</svg>
