<svg xmlns="http://www.w3.org/2000/svg" width="13.1" height="20.159" viewBox="0 0 13.1 20.159">
  <path id="Union_9" data-name="Union 9" d="M0,18.2V15.448c1.407.887,3.983,1.3,6.55,1.3s5.142-.413,6.55-1.3V18.2c0,1.079-2.934,1.958-6.55,1.958S0,19.28,0,18.2ZM0,13.37V10.617c1.407.888,3.983,1.3,6.55,1.3s5.142-.412,6.55-1.3V13.37c0,1.079-2.934,1.958-6.55,1.958S0,14.449,0,13.37ZM0,8.54V5.787c1.407.887,3.983,1.3,6.55,1.3s5.142-.413,6.55-1.3V8.54c0,1.078-2.934,1.958-6.55,1.958S0,9.618,0,8.54ZM0,3.181V1.958C0,.879,2.934,0,6.55,0S13.1.879,13.1,1.958V3.181c0,1.079-2.934,1.958-6.55,1.958S0,4.26,0,3.181Z"/>
</svg>
