<svg xmlns="http://www.w3.org/2000/svg" width="12.717" height="16.956" viewBox="0 0 12.717 16.956">
  <path id="Icon_awesome-file-download" data-name="Icon awesome-file-download" d="M7.418,4.5V0H.795A.793.793,0,0,0,0,.795V16.161a.793.793,0,0,0,.795.795H11.922a.793.793,0,0,0,.795-.795V5.3h-4.5A.8.8,0,0,1,7.418,4.5Zm2.532,7L6.757,14.673a.565.565,0,0,1-.8,0L2.768,11.5A.53.53,0,0,1,3.14,10.6H5.3V7.948a.53.53,0,0,1,.53-.53h1.06a.53.53,0,0,1,.53.53V10.6H9.577A.53.53,0,0,1,9.95,11.5Zm2.535-8.026L9.243.232A.794.794,0,0,0,8.68,0h-.2V4.239h4.239v-.2A.792.792,0,0,0,12.485,3.477Z" fill="#fff"/>
</svg>
