<svg xmlns="http://www.w3.org/2000/svg" width="10.412" height="15.159" viewBox="0 0 15.412 20.159">
  <path id="Icon_awesome-file-contract" data-name="Icon awesome-file-contract" d="M8.99,5.355V0H.963A.952.952,0,0,0,0,.945V19.214a.952.952,0,0,0,.963.945H14.449a.952.952,0,0,0,.963-.945V6.3H9.954A.957.957,0,0,1,8.99,5.355ZM2.569,2.835A.318.318,0,0,1,2.89,2.52H6.1a.318.318,0,0,1,.321.315v.63A.318.318,0,0,1,6.1,3.78H2.89a.318.318,0,0,1-.321-.315Zm0,2.52A.318.318,0,0,1,2.89,5.04H6.1a.318.318,0,0,1,.321.315v.63A.318.318,0,0,1,6.1,6.3H2.89a.318.318,0,0,1-.321-.315Zm7.739,9.765H12.2a.63.63,0,1,1,0,1.26H10.307a1.729,1.729,0,0,1-1.551-.939.446.446,0,0,0-.408-.257.439.439,0,0,0-.4.244l-.308.6a.643.643,0,0,1-.574.348l-.046,0a.638.638,0,0,1-.563-.429L5.78,13.961l-.426,1.255a1.73,1.73,0,0,1-1.646,1.163h-.5a.63.63,0,1,1,0-1.26h.5a.449.449,0,0,0,.427-.3l.73-2.151a.97.97,0,0,1,1.828,0l.557,1.64a1.821,1.821,0,0,1,2.649.558A.459.459,0,0,0,10.307,15.119ZM15.131,4.134,11.2.276A.972.972,0,0,0,10.52,0h-.245V5.04h5.137V4.8A.933.933,0,0,0,15.131,4.134Z" fill="#fff"/>
</svg>
