<svg xmlns="http://www.w3.org/2000/svg" width="22.167" height="16.121" viewBox="0 0 22.167 16.121">
  <path id="Icon_material-cached" data-name="Icon material-cached" d="M19.637,10.03l-4.03,4.03h3.023a6.05,6.05,0,0,1-6.046,6.046A5.915,5.915,0,0,1,9.762,19.4L8.291,20.872a8.047,8.047,0,0,0,12.353-6.811h3.023Zm-13.1,4.03a6.05,6.05,0,0,1,6.046-6.046A5.915,5.915,0,0,1,15.4,8.72l1.471-1.471A8.047,8.047,0,0,0,4.523,14.061H1.5l4.03,4.03,4.03-4.03Z" transform="translate(-1.5 -6)" fill="#404040"/>
</svg>
