<svg xmlns="http://www.w3.org/2000/svg" width="39" height="19.5" viewBox="0 0 39 19.5">
  <path id="Icon_awesome-language" data-name="Icon awesome-language" d="M9.269,15.293c-.213-.737-.475-2.023-.475-2.023h-.03s-.262,1.286-.475,2.023l-.676,2.285H9.933ZM37.537,6.75H20.475v19.5H37.537A1.459,1.459,0,0,0,39,24.787V8.212A1.459,1.459,0,0,0,37.537,6.75Zm-1.463,7.312a.733.733,0,0,1-.731.731h-.695a10.919,10.919,0,0,1-2.6,4.26,18.893,18.893,0,0,0,1.59,1.1.733.733,0,0,1,.25.987l-.481.847a.733.733,0,0,1-1.018.262,21.2,21.2,0,0,1-2.157-1.517,21.492,21.492,0,0,1-2.157,1.517.733.733,0,0,1-1.018-.262l-.481-.847a.731.731,0,0,1,.256-.987,17.383,17.383,0,0,0,1.59-1.1,14.141,14.141,0,0,1-1.28-1.566.729.729,0,0,1,.225-1.042l.4-.238.445-.262a.737.737,0,0,1,.975.207,11.62,11.62,0,0,0,1.06,1.274,9.321,9.321,0,0,0,1.828-2.633H25.106a.733.733,0,0,1-.731-.731v-.975a.733.733,0,0,1,.731-.731h3.9v-.975a.733.733,0,0,1,.731-.731h.975a.733.733,0,0,1,.731.731v.975h3.9a.733.733,0,0,1,.731.731ZM0,8.212V24.787A1.459,1.459,0,0,0,1.462,26.25H18.525V6.75H1.462A1.459,1.459,0,0,0,0,8.212ZM3.589,21.381l3.5-10.3a.729.729,0,0,1,.695-.494h1.98a.743.743,0,0,1,.695.494l3.5,10.3a.733.733,0,0,1-.695.969h-1.4a.731.731,0,0,1-.7-.524L10.6,19.882H6.935L6.38,21.82a.737.737,0,0,1-.7.53h-1.4a.736.736,0,0,1-.695-.969Z" transform="translate(0 -6.75)" fill="#bfbfc4"/>
</svg>
