<svg id="Icon_metro-youtube-play" data-name="Icon metro-youtube-play" xmlns="http://www.w3.org/2000/svg" width="27.857" height="19.5" viewBox="0 0 27.857 19.5">
  <path id="Icon_metro-youtube-play-2" data-name="Icon metro-youtube-play" d="M22.469,16.36A.873.873,0,0,0,22,15.538l-7.959-4.875a.953.953,0,0,0-1.01-.03.905.905,0,0,0-.513.853v9.75a.905.905,0,0,0,.513.853,1.093,1.093,0,0,0,.482.122.9.9,0,0,0,.529-.152L22,17.183a.873.873,0,0,0,.466-.823Zm7.959,0q0,1.462-.016,2.285t-.132,2.079a16.539,16.539,0,0,1-.35,2.247,3.546,3.546,0,0,1-1.073,1.874,3.307,3.307,0,0,1-1.928.884A103.984,103.984,0,0,1,16.5,26.11,103.984,103.984,0,0,1,6.068,25.73a3.343,3.343,0,0,1-1.935-.884,3.525,3.525,0,0,1-1.08-1.874,18.506,18.506,0,0,1-.334-2.247q-.117-1.257-.132-2.079T2.571,16.36q0-1.462.016-2.285T2.718,12a16.539,16.539,0,0,1,.35-2.247A3.546,3.546,0,0,1,4.141,7.875a3.307,3.307,0,0,1,1.928-.884A103.984,103.984,0,0,1,16.5,6.61a103.982,103.982,0,0,1,10.431.381,3.343,3.343,0,0,1,1.935.884,3.525,3.525,0,0,1,1.08,1.874A18.5,18.5,0,0,1,30.28,12q.117,1.257.132,2.079T30.428,16.36Z" transform="translate(-2.571 -6.61)" fill="#bfbfc4"/>
</svg>
