<svg xmlns="http://www.w3.org/2000/svg" width="31.208" height="31.208" viewBox="0 0 31.208 31.208">
  <path id="Icon_awesome-globe-africa" data-name="Icon awesome-globe-africa" d="M15.6.563a15.6,15.6,0,1,0,15.6,15.6A15.6,15.6,0,0,0,15.6.563ZM25.671,14.122v.436a.975.975,0,0,1-.539.872l-.968.484a.974.974,0,0,1-.977-.061l-1.146-.764a.977.977,0,0,0-.849-.114l-.167.055a.975.975,0,0,0-.5,1.466l.833,1.25a.975.975,0,0,0,.811.434h.517a.975.975,0,0,1,.975.975v.714a.976.976,0,0,1-.2.585l-1.179,1.572a.98.98,0,0,0-.178.4l-.271,1.436a.977.977,0,0,1-.3.539,10.042,10.042,0,0,0-1.573,1.835l-.82,1.23a1.746,1.746,0,0,1-3.014-.187,4.964,4.964,0,0,1-.524-2.22V23.182a.975.975,0,0,0-.975-.975H13a3.437,3.437,0,0,1-3.437-3.437v-.885a3.439,3.439,0,0,1,1.375-2.75l1.735-1.3a3.439,3.439,0,0,1,2.062-.688h.056a3.43,3.43,0,0,1,1.537.363l.926.463a.974.974,0,0,0,.744.053l2.977-.992a.975.975,0,0,0-.308-1.9h-.635a.975.975,0,0,1-.69-.286l-.435-.435a.975.975,0,0,0-.69-.286H12.552a.975.975,0,0,1-.975-.975V8.874a.976.976,0,0,1,.739-.946l.909-.227a.977.977,0,0,0,.575-.405l.508-.762A.975.975,0,0,1,15.12,6.1h1.523a.975.975,0,0,0,.975-.975V3.758a12.6,12.6,0,0,1,10.188,9.388h-1.16A.975.975,0,0,0,25.671,14.122Z" transform="translate(0 -0.563)" fill="#fff"/>
</svg>
