<svg xmlns="http://www.w3.org/2000/svg" width="20.666" height="20.666" viewBox="0 0 20.666 20.666">
  <path id="Icon_material-language" data-name="Icon material-language" d="M13.323,3A10.333,10.333,0,1,0,23.666,13.333,10.328,10.328,0,0,0,13.323,3Zm7.161,6.2H17.435a16.17,16.17,0,0,0-1.426-3.679A8.3,8.3,0,0,1,20.483,9.2Zm-7.15-4.092A14.556,14.556,0,0,1,15.307,9.2H11.359A14.556,14.556,0,0,1,13.333,5.108Zm-8,10.292a8.083,8.083,0,0,1,0-4.133H8.828a17.065,17.065,0,0,0-.145,2.067A17.065,17.065,0,0,0,8.828,15.4Zm.847,2.067H9.231a16.17,16.17,0,0,0,1.426,3.679A8.253,8.253,0,0,1,6.183,17.466ZM9.231,9.2H6.183a8.253,8.253,0,0,1,4.474-3.679A16.17,16.17,0,0,0,9.231,9.2Zm4.1,12.358a14.556,14.556,0,0,1-1.974-4.092h3.947A14.556,14.556,0,0,1,13.333,21.558ZM15.751,15.4H10.915a15.2,15.2,0,0,1-.165-2.067,15.071,15.071,0,0,1,.165-2.067h4.836a15.071,15.071,0,0,1,.165,2.067A15.2,15.2,0,0,1,15.751,15.4Zm.258,5.745a16.17,16.17,0,0,0,1.426-3.679h3.048A8.3,8.3,0,0,1,16.009,21.145ZM17.838,15.4a17.065,17.065,0,0,0,.145-2.067,17.066,17.066,0,0,0-.145-2.067h3.493a8.083,8.083,0,0,1,0,4.133Z" transform="translate(-3 -3)"/>
</svg>
