<svg xmlns="http://www.w3.org/2000/svg" width="20.026" height="19" viewBox="0 0 20.026 19">
  <path id="Icon_metro-chart-dots" data-name="Icon metro-chart-dots" d="M5.074,18.553H22.6v2.375H2.571v-19h2.5ZM8.2,17.366a1.784,1.784,0,1,1,0-3.563c.055,0,.11,0,.164.007l2.018-3.191a1.708,1.708,0,0,1-.3-.972,1.88,1.88,0,0,1,3.755,0,1.708,1.708,0,0,1-.3.972l2.018,3.191q.082-.007.164-.007c.042,0,.083,0,.124,0l3.332-5.532a1.71,1.71,0,0,1-.327-1,1.88,1.88,0,0,1,3.755,0,1.831,1.831,0,0,1-1.877,1.781c-.042,0-.083,0-.124,0L17.263,14.58a1.71,1.71,0,0,1,.327,1,1.88,1.88,0,0,1-3.755,0,1.708,1.708,0,0,1,.3-.972l-2.018-3.191c-.054,0-.109.007-.164.007s-.11,0-.164-.007L9.776,14.612a1.708,1.708,0,0,1,.3.972A1.831,1.831,0,0,1,8.2,17.366Z" transform="translate(-2.571 -1.928)"/>
</svg>
