<svg xmlns="http://www.w3.org/2000/svg" width="20.25" height="27" viewBox="0 0 20.25 27">
  <path id="Icon_awesome-file-download" data-name="Icon awesome-file-download" d="M11.813,7.172V0H1.266A1.263,1.263,0,0,0,0,1.266V25.734A1.263,1.263,0,0,0,1.266,27H18.984a1.263,1.263,0,0,0,1.266-1.266V8.438H13.078A1.269,1.269,0,0,1,11.813,7.172Zm4.032,11.146-5.085,5.047a.9.9,0,0,1-1.268,0L4.407,18.318A.843.843,0,0,1,5,16.875H8.438V12.656a.844.844,0,0,1,.844-.844h1.688a.844.844,0,0,1,.844.844v4.219H15.25A.844.844,0,0,1,15.844,18.318ZM19.881,5.537,14.718.369a1.265,1.265,0,0,0-.9-.369H13.5V6.75h6.75V6.428A1.262,1.262,0,0,0,19.881,5.537Z" fill="#6c7787"/>
</svg>
