<svg xmlns="http://www.w3.org/2000/svg" width="26.253" height="20.159" viewBox="0 0 26.253 20.159">
  <g id="Icon_ionic-ios-people" data-name="Icon ionic-ios-people" transform="translate(-3.215 -7.749)">
    <path id="Path_563" data-name="Path 563" d="M22.746,23.258c-.7-.276-1.846-.29-2.353-.5a3.2,3.2,0,0,1-1.089-.56,8.174,8.174,0,0,1-.181-1.969,3.181,3.181,0,0,0,.619-.967,11.776,11.776,0,0,0,.3-1.9s.413.193.576-.718a6.6,6.6,0,0,0,.332-1.782c-.075-.58-.363-.442-.363-.442a5.633,5.633,0,0,0,.363-2.584,3.931,3.931,0,0,0-4.042-4.083,3.943,3.943,0,0,0-4.049,4.083,5.719,5.719,0,0,0,.357,2.584s-.294-.138-.363.442a6.147,6.147,0,0,0,.332,1.782c.163.919.576.718.576.718a11.89,11.89,0,0,0,.3,1.9,3.181,3.181,0,0,0,.619.967,8.174,8.174,0,0,1-.181,1.969,3.072,3.072,0,0,1-1.089.553c-.5.214-1.646.242-2.353.518a4.837,4.837,0,0,0-2.866,4.643H25.606A4.829,4.829,0,0,0,22.746,23.258Z" transform="translate(-0.58)"/>
    <path id="Path_564" data-name="Path 564" d="M10.1,19.751a4.112,4.112,0,0,0,2.121-.628c-.984-1.586-.451-3.435-.654-5.162a2.743,2.743,0,0,0-2.965-2.753H8.58a2.752,2.752,0,0,0-2.94,2.753c-.2,1.721.362,3.779-.648,5.162a3.8,3.8,0,0,0,2.127.56h0a3.628,3.628,0,0,1-.063,1.134,1.563,1.563,0,0,1-.762.371,14.057,14.057,0,0,0-1.644.486,2.855,2.855,0,0,0-1.435,2.51h5.1a4.7,4.7,0,0,1,2.032-2.011,4.047,4.047,0,0,1,1.568-.351s.241-.4-.552-.56a5.2,5.2,0,0,1-1.219-.452A3.236,3.236,0,0,1,10.1,19.751Z" transform="translate(0 0.092)"/>
    <path id="Path_565" data-name="Path 565" d="M24.928,19.751a4.112,4.112,0,0,1-2.121-.628c.984-1.586.451-3.435.654-5.162a2.743,2.743,0,0,1,2.965-2.753h.025a2.752,2.752,0,0,1,2.94,2.753c.2,1.721-.362,3.779.648,5.162a3.8,3.8,0,0,1-2.127.56h0a3.628,3.628,0,0,0,.063,1.134,1.563,1.563,0,0,0,.762.371,14.057,14.057,0,0,1,1.644.486,2.855,2.855,0,0,1,1.435,2.51h-5.1a4.7,4.7,0,0,0-2.032-2.011,4.047,4.047,0,0,0-1.568-.351s-.241-.4.552-.56a5.2,5.2,0,0,0,1.219-.452A3.236,3.236,0,0,0,24.928,19.751Z" transform="translate(-2.35 0.092)"/>
  </g>
</svg>
