<svg xmlns="http://www.w3.org/2000/svg" width="16.196" height="20.159" viewBox="0 0 16.196 20.159">
  <path id="Icon_awesome-calendar-alt" data-name="Icon awesome-calendar-alt" d="M0,18.269a1.818,1.818,0,0,0,1.735,1.89H14.461a1.818,1.818,0,0,0,1.735-1.89V7.56H0Zm11.569-7.717A.456.456,0,0,1,12,10.08h1.446a.456.456,0,0,1,.434.472v1.575a.456.456,0,0,1-.434.472H12a.456.456,0,0,1-.434-.472Zm0,5.04A.456.456,0,0,1,12,15.119h1.446a.456.456,0,0,1,.434.472v1.575a.456.456,0,0,1-.434.472H12a.456.456,0,0,1-.434-.472Zm-4.627-5.04a.456.456,0,0,1,.434-.472H8.821a.456.456,0,0,1,.434.472v1.575a.456.456,0,0,1-.434.472H7.375a.456.456,0,0,1-.434-.472Zm0,5.04a.456.456,0,0,1,.434-.472H8.821a.456.456,0,0,1,.434.472v1.575a.456.456,0,0,1-.434.472H7.375a.456.456,0,0,1-.434-.472Zm-4.627-5.04a.456.456,0,0,1,.434-.472H4.194a.456.456,0,0,1,.434.472v1.575a.456.456,0,0,1-.434.472H2.748a.456.456,0,0,1-.434-.472Zm0,5.04a.456.456,0,0,1,.434-.472H4.194a.456.456,0,0,1,.434.472v1.575a.456.456,0,0,1-.434.472H2.748a.456.456,0,0,1-.434-.472ZM14.461,2.52H12.726V.63A.608.608,0,0,0,12.147,0H10.99a.608.608,0,0,0-.578.63V2.52H5.784V.63A.608.608,0,0,0,5.206,0H4.049a.608.608,0,0,0-.578.63V2.52H1.735A1.818,1.818,0,0,0,0,4.41V6.3H16.2V4.41A1.818,1.818,0,0,0,14.461,2.52Z"/>
</svg>
