<svg xmlns="http://www.w3.org/2000/svg" width="20.188" height="19" viewBox="0 0 20.188 19">
  <path id="Icon_awesome-chart-pie" data-name="Icon awesome-chart-pie" d="M19.586,10.688H10.78l5.865,5.865a.6.6,0,0,0,.823.025,8.888,8.888,0,0,0,2.714-5.227.6.6,0,0,0-.6-.662ZM19,8.283A8.928,8.928,0,0,0,10.717,0a.6.6,0,0,0-.623.6v8.3h8.3a.6.6,0,0,0,.6-.623Zm-10.686,2.4V1.882a.6.6,0,0,0-.662-.6A8.9,8.9,0,0,0,.005,10.4,9.016,9.016,0,0,0,9.019,19a8.837,8.837,0,0,0,5.02-1.634.59.59,0,0,0,.058-.894Z" transform="translate(0 0)"/>
</svg>
