<svg id="Icon_ionic-ios-settings" data-name="Icon ionic-ios-settings" xmlns="http://www.w3.org/2000/svg" width="18.662" height="18.667" viewBox="0 0 18.662 18.667">
  <path id="Icon_ionic-ios-settings-2" data-name="Icon ionic-ios-settings" d="M21.621,13.831a2.4,2.4,0,0,1,1.541-2.24A9.519,9.519,0,0,0,22.01,8.816a2.434,2.434,0,0,1-.977.209,2.4,2.4,0,0,1-2.192-3.373A9.49,9.49,0,0,0,16.071,4.5a2.4,2.4,0,0,1-4.481,0A9.519,9.519,0,0,0,8.816,5.652,2.4,2.4,0,0,1,6.624,9.025a2.354,2.354,0,0,1-.977-.209A9.729,9.729,0,0,0,4.5,11.6a2.4,2.4,0,0,1,0,4.481,9.519,9.519,0,0,0,1.152,2.775A2.4,2.4,0,0,1,8.82,22.015,9.574,9.574,0,0,0,11.6,23.167a2.395,2.395,0,0,1,4.471,0,9.519,9.519,0,0,0,2.775-1.152,2.4,2.4,0,0,1,3.164-3.164,9.574,9.574,0,0,0,1.152-2.775A2.413,2.413,0,0,1,21.621,13.831Zm-7.747,3.883a3.888,3.888,0,1,1,3.888-3.888A3.887,3.887,0,0,1,13.875,17.714Z" transform="translate(-4.5 -4.5)" fill="#4a5768"/>
</svg>
