<svg xmlns="http://www.w3.org/2000/svg" width="22.679" height="20.159" viewBox="0 0 22.679 20.159">
  <path id="Icon_awesome-file-signature" data-name="Icon awesome-file-signature" d="M8.59,16.7a.436.436,0,0,0-.4-.257.429.429,0,0,0-.395.244l-.3.6a.63.63,0,0,1-1.161-.082L5.67,15.221l-.418,1.255a1.7,1.7,0,0,1-1.614,1.163H3.15a.63.63,0,0,1,0-1.26h.488a.441.441,0,0,0,.419-.3l.716-2.151a.945.945,0,0,1,1.793,0l.547,1.64a1.767,1.767,0,0,1,2.6.558.447.447,0,0,0,.369.246V13.137l5.04-5V6.3H9.765a.948.948,0,0,1-.945-.945V0H.945A.943.943,0,0,0,0,.945V19.214a.943.943,0,0,0,.945.945H14.174a.943.943,0,0,0,.945-.945V17.639l-5.04,0A1.691,1.691,0,0,1,8.59,16.7ZM15.119,4.8a.942.942,0,0,0-.276-.665L10.989.276A.944.944,0,0,0,10.32,0h-.24V5.04h5.04Zm-3.78,8.861v2.718h2.716L20.422,9.97,17.749,7.3l-6.41,6.364ZM22.385,6.588,21.131,5.334a1,1,0,0,0-1.418,0L18.64,6.406l2.673,2.673,1.073-1.073A1,1,0,0,0,22.385,6.588Z"/>
</svg>
