<svg xmlns="http://www.w3.org/2000/svg" width="17.14" height="16.957" viewBox="0 0 17.14 16.957">
  <path id="Union_3" data-name="Union 3" d="M-7888.609-864.043a.647.647,0,0,1-.68-.606v-11.506h-2.034a.6.6,0,0,1-.479-1.034l3.391-3.633a.734.734,0,0,1,.959,0l3.391,3.633a.6.6,0,0,1-.479,1.034h-2.034v11.506a.645.645,0,0,1-.678.606Zm9.2-.178-3.391-3.633a.6.6,0,0,1,.479-1.034h2.034v-11.506a.646.646,0,0,1,.679-.606h1.357a.645.645,0,0,1,.677.606v11.506h2.034a.6.6,0,0,1,.479,1.034l-3.391,3.633a.722.722,0,0,1-.479.177A.72.72,0,0,1-7879.411-864.222Z" transform="translate(7892.001 881)"/>
</svg>
