<svg xmlns="http://www.w3.org/2000/svg" width="20.956" height="17.906" viewBox="0 0 19.956 19.906">
  <path id="Icon_material-slow-motion-video" data-name="Icon material-slow-motion-video" d="M14.078,10.817,11.027,8.527v9l3.051-2.291,2.951-2.211Zm0,0L11.027,8.527v9l3.051-2.291,2.951-2.211Zm0,0L11.027,8.527v9l3.051-2.291,2.951-2.211ZM12.028,5.1V3.075A9.952,9.952,0,0,0,6.706,5.286l1.42,1.43a7.944,7.944,0,0,1,3.9-1.621ZM6.716,8.127l-1.43-1.42a9.952,9.952,0,0,0-2.211,5.322H5.1A7.944,7.944,0,0,1,6.716,8.127ZM5.1,14.028H3.075A9.952,9.952,0,0,0,5.286,19.35l1.43-1.43A7.87,7.87,0,0,1,5.1,14.028Zm1.611,6.742a9.984,9.984,0,0,0,5.322,2.211V20.961a7.944,7.944,0,0,1-3.9-1.621l-1.42,1.43Zm16.325-7.742a10.018,10.018,0,0,1-8.953,9.953V20.961a8,8,0,0,0,0-15.865V3.075A10.018,10.018,0,0,1,23.031,13.028Z" transform="translate(-3.075 -3.075)" fill=""/>
</svg>
