<svg xmlns="http://www.w3.org/2000/svg" width="22.764" height="25.81" viewBox="0 0 22.764 25.81">
  <path id="Union_13" data-name="Union 13" d="M512.643,421.126a11.734,11.734,0,0,1-6.309-15.456,11.965,11.965,0,0,1,15.627-6.25l1.346-3.136c.233-.541,4.839,7.563,4.839,7.563l-8.436.817,1.524-3.55a10.123,10.123,0,0,0-13.271,5.45,9.948,9.948,0,0,0,5.527,12.919,10.092,10.092,0,0,0,12.708-4.565.923.923,0,0,1,1.18-.416.905.905,0,0,1,.459,1.262,11.966,11.966,0,0,1-15.2,5.362Zm2.23-9.167v-7.667h1.871v6.681l5.507,3.426-.9,1.345Z" transform="translate(-505.381 -396.259)" fill="#5f5f65"/>
</svg>
