<?xml version="1.0" standalone="no"?>
<!DOCTYPE svg PUBLIC "-//W3C//DTD SVG 20010904//EN"
 "http://www.w3.org/TR/2001/REC-SVG-20010904/DTD/svg10.dtd">
<svg version="1.0" xmlns="http://www.w3.org/2000/svg"
 width="256.000000pt" height="256.000000pt" viewBox="0 0 256.000000 256.000000"
 preserveAspectRatio="xMidYMid meet">

<g transform="translate(0.000000,256.000000) scale(0.100000,-0.100000)"
fill="#000000" stroke="none">
<path d="M1215 2466 c-71 -31 -108 -113 -87 -191 l11 -40 -107 -108 c-75 -75
-111 -105 -122 -100 -13 6 -70 8 -262 12 l-48 1 0 68 c0 72 -10 92 -45 92 -13
0 -58 38 -120 100 -55 55 -107 100 -115 100 -20 0 -240 -221 -240 -241 0 -27
23 -39 72 -39 l48 0 0 -68 c0 -72 10 -92 45 -92 12 0 50 -30 94 -74 l74 -75
-16 -38 c-25 -60 -37 -113 -37 -174 0 -50 -4 -60 -35 -93 -95 -102 -24 -265
117 -266 28 0 38 -7 63 -46 17 -25 45 -56 63 -70 22 -17 32 -33 32 -53 0 -25
-11 -32 -165 -106 -91 -43 -183 -91 -204 -107 -62 -45 -76 -87 -117 -355 l-38
-243 20 -47 c22 -54 83 -106 142 -123 60 -16 1087 -13 1135 4 58 21 108 65
130 115 19 42 19 53 9 127 -17 111 -17 111 23 124 44 15 118 96 133 148 19 62
17 646 -2 661 -10 8 -60 11 -153 11 -91 -1 -147 2 -165 10 l-27 13 6 111 c7
132 -3 171 -57 230 -20 23 -45 65 -54 94 -26 78 -90 167 -152 210 -29 20 -53
39 -54 42 0 3 42 47 93 97 l92 92 43 -12 c32 -8 53 -8 88 1 l46 12 52 -47 c29
-27 93 -86 142 -131 l91 -84 -10 -37 c-15 -57 -1 -110 42 -152 65 -65 157 -65
222 0 43 43 57 95 42 153 -10 37 -9 40 27 71 20 18 85 76 143 130 l105 97 44
-11 c64 -17 115 -5 159 40 65 65 65 157 0 222 -115 115 -306 4 -264 -152 l10
-38 -140 -128 c-102 -93 -146 -127 -161 -125 -27 5 -125 5 -152 0 -15 -2 -60
33 -161 125 l-140 128 10 38 c35 129 -96 240 -218 187z m120 -91 c50 -49 15
-135 -55 -135 -19 0 -40 9 -55 25 -16 15 -25 36 -25 55 0 19 9 40 25 55 15 16
36 25 55 25 19 0 40 -9 55 -25z m1040 0 c50 -49 15 -135 -55 -135 -19 0 -40 9
-55 25 -16 15 -25 36 -25 55 0 19 9 40 25 55 15 16 36 25 55 25 19 0 40 -9 55
-25z m-2000 -125 c40 -40 45 -50 29 -50 -34 0 -44 -21 -44 -92 l0 -68 -40 0
-40 0 0 68 c0 71 -10 92 -44 92 -16 0 -11 10 29 50 27 28 52 50 55 50 3 0 28
-22 55 -50z m145 -198 c0 -72 10 -92 44 -92 17 0 11 -10 -32 -52 l-52 -53 -52
53 c-43 42 -49 52 -32 52 34 0 44 20 44 92 l0 68 40 0 40 0 0 -68z m426 -126
c83 -38 166 -122 188 -192 10 -34 -32 -40 -64 -10 -52 50 -110 71 -190 71 -61
0 -84 -5 -125 -27 -27 -14 -61 -38 -75 -53 -14 -15 -35 -31 -46 -35 -12 -5
-30 -25 -41 -46 -22 -43 -73 -74 -120 -74 -32 0 -33 1 -33 43 0 91 19 126 129
232 115 113 144 127 252 121 45 -2 85 -12 125 -30z m909 -31 c50 -49 15 -135
-55 -135 -19 0 -40 9 -55 25 -16 15 -25 36 -25 55 0 19 9 40 25 55 15 16 36
25 55 25 19 0 40 -9 55 -25z m-865 -209 c59 -39 85 -89 85 -166 0 -78 -26
-127 -88 -168 -56 -37 -153 -39 -210 -3 -76 47 -111 140 -88 229 14 51 75 117
123 131 53 16 135 6 178 -23z m191 -71 c64 -33 81 -107 63 -262 l-7 -52 -115
-66 c-102 -59 -118 -65 -137 -55 -18 10 -45 48 -45 64 0 2 17 8 38 14 53 16
118 75 149 136 28 53 37 148 20 209 -9 31 -6 32 34 12z m-527 -259 c39 -51 98
-92 154 -106 43 -12 49 -17 69 -62 l22 -49 -25 -9 c-81 -31 -196 1 -270 74
-60 60 -84 121 -84 212 0 62 0 62 38 81 l37 18 15 -61 c9 -34 28 -78 44 -98z
m-214 55 c0 -33 3 -66 6 -75 10 -26 -33 -20 -61 9 -43 42 -23 125 31 125 23 0
24 -3 24 -59z m872 -198 c39 -45 281 -480 285 -514 20 -144 -158 -236 -262
-136 -37 36 -295 479 -295 507 0 10 7 24 16 31 26 21 217 129 230 129 6 0 18
-8 26 -17z m288 -170 c0 -86 -2 -154 -4 -152 -21 24 -156 272 -156 288 0 20 6
21 80 21 l80 0 0 -157z m-640 0 c0 -20 -17 -45 -67 -95 -83 -84 -99 -86 -165
-21 -43 42 -48 52 -48 91 0 38 2 43 18 37 37 -15 147 -16 192 -2 64 21 70 20
70 -10z m-310 -148 l54 -55 -32 -32 -32 -33 -65 65 c-36 35 -65 67 -65 70 0 4
66 36 80 39 3 1 30 -24 60 -54z m381 13 l22 -43 -49 -42 -49 -43 -30 30 -29
30 54 55 c30 30 56 55 57 55 1 0 12 -19 24 -42z m-501 -133 c94 -94 114 -107
138 -83 10 10 16 8 31 -7 18 -20 18 -25 -17 -272 l-36 -253 -185 0 c-168 0
-189 2 -229 21 -79 39 -80 49 -37 320 20 129 40 241 45 249 15 27 54 57 115
88 33 17 65 31 70 32 6 0 53 -43 105 -95z m315 5 c18 -20 18 -21 -13 -53 l-32
-32 -32 32 c-31 32 -31 33 -13 53 10 11 30 20 45 20 15 0 35 -9 45 -20z m336
-132 c69 -122 123 -178 190 -197 l46 -13 12 -88 c15 -108 4 -137 -62 -169 -39
-19 -61 -21 -228 -21 l-185 0 -36 253 c-35 247 -35 252 -17 272 15 15 21 17
31 7 21 -21 39 -13 101 44 71 66 57 74 148 -88z m-366 -80 c10 -60 55 -380 55
-394 0 -11 -16 -14 -70 -14 -54 0 -70 3 -70 14 0 14 45 334 55 394 3 17 10 32
15 32 5 0 12 -15 15 -32z"/>
<path d="M840 1633 c-54 -20 -97 -106 -70 -139 17 -19 50 -14 61 9 5 9 13 25
17 34 5 10 19 20 32 23 13 3 28 13 34 23 22 35 -27 68 -74 50z"/>
<path d="M2172 1748 c-17 -17 -17 -1079 0 -1096 17 -17 279 -17 296 0 17 17
17 1079 0 1096 -8 8 -56 12 -148 12 -92 0 -140 -4 -148 -12z m228 -548 l0
-480 -80 0 -80 0 0 480 0 480 80 0 80 0 0 -480z"/>
<path d="M1772 1508 c-17 -17 -17 -839 0 -856 17 -17 279 -17 296 0 17 17 17
839 0 856 -8 8 -56 12 -148 12 -92 0 -140 -4 -148 -12z m228 -428 l0 -360 -80
0 -80 0 0 360 0 360 80 0 80 0 0 -360z"/>
</g>
</svg>
